<?xml version="1.0" encoding="utf-8"?>
<!-- Generator: Adobe Illustrator 21.0.0, SVG Export Plug-In . SVG Version: 6.00 Build 0)  -->
<svg version="1.1" id="Layer_1" xmlns="http://www.w3.org/2000/svg" xmlns:xlink="http://www.w3.org/1999/xlink" x="0px" y="0px"
	 viewBox="0 0 300 162" style="enable-background:new 0 0 300 162;" xml:space="preserve">
<style type="text/css">
	.st0{fill:#FFFFFF;}
</style>
<path class="st0" d="M267,138v-6.2c0-1-0.9-3.4-2.1-3.9l0,0c-1-0.4-2.3-0.7-3.3-0.7c-0.2,0-1,0-1.2,0.1c-0.7,0.1-1.2,0.3-1.6,0.5
	c-0.4,0.1-1.2,0.6-1.2,0.8c0,0.3,0.7,1.3,1,1.9c0.8-0.9,2.2-1.1,3.1-1.1c1.3,0,3,0.6,3,2.7c0,0.2,0,0.4-0.1,0.5
	c-0.6-0.1-1.4-0.3-1.6-0.3c-2.3,0-6.1,1.2-6.1,4.8c0,2,1.4,4,3.8,4c1,0,3.5-0.6,4.2-1.7c0.2,0.8,1.3,1.4,2.1,1.6h1.1v-1.1
	C267.3,139.3,267.1,138.6,267,138z M264.5,137.5c-1.2,1.1-1.9,1.5-3.1,1.5c-1.3,0-2.3-0.5-2.3-2c0-2.3,2.5-2.9,3.8-2.9
	c0.2,0,1,0.1,1.4,0.1l0.1-0.1V137.5z"/>
<path class="st0" d="M127.2,137.6v-6.2c0-0.3-0.4-1-0.5-1.5c-0.7-2.2-3.5-2.6-4.9-2.6c-1.3,0-3.2,0.6-4.2,1.3
	c0.2,0.5,0.7,1.6,1.1,1.9c1-1,2-1.1,3.1-1.1c1.6,0,3,0.9,3,2.8c0,0.3,0,0.3-0.1,0.4c-0.6-0.1-1.5-0.3-1.7-0.3
	c-2.3,0-6.1,1.2-6.1,4.8c0,2,1.5,4,3.8,4c1,0,3.7-0.6,4.3-1.7c0.2,1,1.4,1.5,2.1,1.6h1v-1.1C127.3,139.2,127.4,138.1,127.2,137.6z
	 M124.9,137.4c-1,1.2-2.2,1.6-3.1,1.6c-1.2,0-2.2-0.4-2.2-1.9c0-2.3,2.3-3,3.7-3c0.2,0,0.9,0,1.3,0.1c0.1,0.1,0.2,0.1,0.3-0.1V137.4
	z"/>
<polygon class="st0" points="112.4,135.1 112.4,135.1 112.4,135.1 "/>
<path class="st0" d="M90.2,128.1c-0.8-0.6-2.4-0.9-3.1-0.9c-4.1,0-6.1,4.2-6.1,7.2s1.4,6.5,5.6,6.5c1.1,0,2.3-0.2,3.4-1
	c0.1,0.3,0.1,0.6,0.1,0.9h2.3v-18.6h-2.3V128.1z M90.1,137.9c-0.7,0.8-1.8,1-2.4,1c-3.2,0-4.1-2.3-4.1-4.7c0-2.2,1.1-4.9,4-4.9
	c0.8,0,1.8,0.2,2.5,1.2V137.9z"/>
<path class="st0" d="M79.3,134.3c0.1-0.5,0.1-1.2,0.1-1.4c0-3.6-2.4-5.6-5.9-5.6c-4,0-6.2,3.4-6.2,7c0,3.3,2,6.8,6.2,6.8
	c1.1,0,4.1-0.7,4.8-1.5c-0.4-0.6-0.7-1.1-1-1.6c-1.2,0.9-2.2,1.1-3.2,1.1c-2,0-4-1.2-4.2-3.9v-0.8H79.3z M69.9,132.2
	c0.6-2,1.9-2.9,3.6-2.9c0.2,0,0.8,0,1.1,0.1c0.8,0.1,2.3,1.7,2.3,2.6v0.5h-7.1V132.2z"/>
<path class="st0" d="M179.4,127.3c-4,0-6,3.2-6,6.8c0,3.3,1.6,7,6,7c4.5,0,5.9-3.6,5.9-7C185.3,130.8,184,127.3,179.4,127.3z
	 M179.3,138.9c-3.1,0-3.3-3.1-3.3-4.8s0.5-4.9,3.4-4.9c3,0,3.4,3,3.4,4.8C182.8,135.9,182.3,138.9,179.3,138.9z"/>
<polygon class="st0" points="241.2,127.6 241.2,140.7 238.9,140.7 238.9,129.5 237.1,129.5 237.1,127.6 241.2,127.6 "/>
<polygon class="st0" points="54.5,127.6 54.5,140.7 52.1,140.7 52.1,129.5 50.3,129.5 50.3,127.6 54.5,127.6 "/>
<path class="st0" d="M210.1,122.4h-0.7c-2.4,6.1-4.9,12.2-7.2,18.3h2.8c0.4-1.2,0.9-2.6,1.4-3.8h6.5c0.5,1.2,1,2.6,1.3,3.8h2.8
	L210.1,122.4z M207.1,135l2.7-7.5l2.4,7.5H207.1z"/>
<path class="st0" d="M254.9,128.6c-0.3,0.5-0.7,1-1,1.6c-1.3-0.8-2-1-3.1-1c-3.3,0-4.1,2.9-4.1,5c0,2.8,1.3,4.8,4.2,4.8
	c1,0,2.4-0.6,3.2-1.2l1,1.9c-0.8,0.7-3.4,1.3-4.7,1.3c-2.5,0-5.2-1.5-6.1-5.1c0-0.2-0.1-0.6-0.1-0.8v-1.8c0.4-4.5,3.6-6.1,6.7-6.1
	C252,127.3,253.7,127.8,254.9,128.6L254.9,128.6z"/>
<path class="st0" d="M236.1,127.5l-0.9,2.3c-0.5-0.2-1.4-0.5-1.6-0.5c-1.5,0-3.1,1.7-3.1,3.1v8.4h-2.4v-13.2h2.4
	c0,0.6,0,1.2,0.1,1.8c0.8-1.6,2.5-2.1,3.6-2.1C234.5,127.3,235.5,127.4,236.1,127.5L236.1,127.5z"/>
<path class="st0" d="M195.9,127.6c-0.3,0.8-0.6,1.4-0.9,2.1c-0.5-0.2-1.4-0.5-1.6-0.5c-1.5,0-3.1,1.7-3.1,3.1v8.4H188v-13.2h2.4
	c0,0.6,0,1.2,0.1,1.8c0.8-1.6,2.5-2.1,3.6-2.1C194.7,127.3,195.9,127.6,195.9,127.6L195.9,127.6z"/>
<path class="st0" d="M138.2,127.4c1.6,0,3.1,2.4,3.1,3.8v9.5h-2.3V132c-0.1-2-1.2-2.8-2.7-2.8c-0.3,0-0.5-0.1-0.6,0
	c-0.6,0.1-2.6,1-2.6,1.7v9.7H131v-13.2h1.6c0.2,0.5,0.5,1,0.7,1.5c1-1.3,2.5-1.8,3.8-1.8C137.3,127.3,137.8,127.4,138.2,127.4
	L138.2,127.4z"/>
<path class="st0" d="M45.4,127.6c0.3,0.1,1,0.9,1.3,1.2c0.1,0,0.9,1.9,0.9,2.3v9.5h-2.3V132c-0.4-2.2-1.1-2.8-2.7-2.8
	c-1,0-2.1,0.4-3.1,1.7v9.7h-2.3v-13.2h1.6c0.2,0.5,0.5,1,0.7,1.5c1-1.3,2.5-1.8,3.8-1.8C43.5,127.3,44.7,127.4,45.4,127.6
	L45.4,127.6z"/>
<path class="st0" d="M111.3,130.7l0.1-0.2c1.9-1,2.6-2.3,2.6-3.6c0-3.6-3.2-4.4-5.8-4.4h-4.5v18.2h5.9c1.6,0,5-1.6,5.2-3.7
	c0.1-0.5,0.3-1.3,0.3-1.5C115.1,133.4,114.1,131.3,111.3,130.7z M107.7,124.7c1.4-0.1,3.6-0.2,3.7,2.2c0.1,2.5-2,2.9-3.6,3l-1.4,0.1
	l-0.3-5.1L107.7,124.7z M112.4,135.1L112.4,135.1c0,3.1-2.4,3.5-4.5,3.5c-0.2,0-1.1,0-1.6-0.1v-6.8c0.6,0.1,1.5,0,1.8,0
	C110.5,131.7,112.4,132.2,112.4,135.1L112.4,135.1z"/>
<path class="st0" d="M61.3,127.6H65v1.8h-3.6v7.4c0.5,1.7,1.1,2.2,2.3,2.2c0.3,0,1.3-0.3,1.9-0.5c0.1,0.7,0.3,1.4,0.4,2.1
	c-1,0.2-3,0.4-3.2,0.4c-2,0-3.7-1.9-3.7-3.7v-7.9h-1.5v-1.8h1.5v-2.8c0.8-0.3,1.6-0.7,2.4-0.9L61.3,127.6L61.3,127.6z"/>
<path class="st0" d="M23.5,122.7v12.2c0.4,2.9,1.9,3.9,3.8,3.9c1.6,0,3.1-0.8,3.9-3v-13.2h2.5v13.4c-0.6,4-3.9,4.9-6.4,4.9
	c-2,0-4.7-0.6-5.8-3.1c-0.2-0.6-0.4-1.5-0.4-1.7v-13.4H23.5L23.5,122.7z"/>
<path class="st0" d="M241.6,123.9c0,1-0.6,1.5-1.4,1.5c-1,0-1.4-0.9-1.4-1.4c0-1,0.5-1.4,1.4-1.4C241,122.6,241.6,123.1,241.6,123.9
	L241.6,123.9z"/>
<path class="st0" d="M54.8,123.9c0,1-0.9,1.5-1.5,1.5c-1,0-1.4-0.9-1.4-1.4c0-1,0.8-1.4,1.4-1.4C54.2,122.6,54.8,123.1,54.8,123.9
	L54.8,123.9z"/>
<path class="st0" d="M226.4,122.5c-0.1,0.2-0.7,1.7-0.8,1.7c-0.3,0-1-0.2-1.2-0.2c-1.7,0-2.5,1.5-2.5,2.9c0,0.2,0.1,0.4,0.1,0.7h2.7
	v1.9H222v11.3h-2.3v-11.3h-1.9v-1.9h1.9c-0.1-3.1,1.5-5.4,4.5-5.4C224.4,122.1,225.7,122.3,226.4,122.5L226.4,122.5z"/>
<path class="st0" d="M172.7,122.5l-0.6,1.7c-0.4-0.1-1-0.2-1.3-0.2c-1,0-2.5,1-2.5,2.2v1.3h2.8v1.9h-2.8v11.3h-2.3v-11.3h-1.9v-1.9
	h1.9c0-3.2,1.6-5.4,4.5-5.4C170.8,122.1,172.1,122.3,172.7,122.5L172.7,122.5z"/>
<path class="st0" d="M147.1,122.1v11.4l5-5.9h2.8l-4.1,5l5.1,8.2h-2.6l-4.1-6.6c-0.6,0.7-1.3,1.4-2,2.1v4.5h-2.4v-18.6L147.1,122.1
	L147.1,122.1z"/>
<path class="st0" d="M170.8,46.5L170.8,46.5h-4.2l-39.9,58.9h10.7l7.6-11.5H170l2.3,11.5h12.9L170.8,46.5z M150.4,85.1L163,65.8
	l4.7,19.3H150.4z"/>
<path class="st0" d="M36.3,46.5c-1,5.1-2,9.8-3,14.6c-0.8,3.5-1.5,7.2-2.2,10.9c-1,5.3-2.5,10.5-2.5,15.8c0,5.8,1.9,11.1,9.4,11.1
	c7.2,0,14.4-4.8,16.7-14.5c3-12.6,5.4-25.3,8.1-37.9h10.9v0.3c-3.1,13.8-5.9,27.7-9.1,41.4c-1.7,4.3-2.4,5-3.7,6.8
	c-5.7,7.9-13.4,10.5-19.9,11.3c-0.8,0.1-2.1,0.3-2.4,0.3h-5.8c-1.1-0.1-2.4-0.3-3.4-0.5c-1-0.2-2.2-0.5-3.2-0.8
	C18.9,103.4,16,96.4,16,91.1v-2.3c0.1-0.7,0.1-1.4,0.2-2.2c2.8-13.4,5.5-26.8,8.3-40.2L36.3,46.5L36.3,46.5z"/>
<path class="st0" d="M234.1,104.9c-1.5,0.2-4.5,0.6-4.8,0.6h-23.8l16-75.3c8.4,16.4,16.8,33,25.1,49.6c1.4,3.6,2.8,7.5,2.8,11.3
	C249.4,99.4,243.6,103.4,234.1,104.9L234.1,104.9z"/>
<path class="st0" d="M268.2,90.3c-4.9-9.4-9.7-19-14.5-28.4c-2.7-5.2-5.3-10.7-8-15.8c-0.9-1.8-1.8-3.4-2.6-5.2
	c-0.9-1.9-2.8-7.7-2.8-10.5v-2c0.1-1,0.2-2.1,0.5-3c2.9-9.1,13.4-9.9,19.7-10.4l23.8,0L268.2,90.3z"/>
<path class="st0" d="M113.2,73.6c-0.1,0-0.3,0-0.4-0.1c8.7-2.9,13.6-8.2,13.6-15.4c0-6.7-4-10.7-12.6-11.6l0,0H88.3l-12.3,59h24.3
	c1.3,0,5.2-0.8,5.7-0.9c12.4-2.8,18.1-11.4,18.1-20.6C124.2,78.2,119.6,74.5,113.2,73.6z M96,67.7c0.2-1,0.5-2,0.6-3
	c0.2-1,0.5-2,0.6-3c0.2-1,0.5-2,0.6-3c0.2-1,0.3-1.5,0.5-3c0.2-1.7,0.1-1.8,1-1.7l7.2-0.2c3.1,0,7.8,1.6,7.8,6c0,0.2-0.4,2-0.5,3
	c-0.2,2-2,5-4.7,6.6c-1,0.6-4.9,2.9-5.4,2.9h-8.5C95.4,70.9,95.7,69.3,96,67.7z M112.2,88.8c-0.3,1-0.8,1.8-1.7,3
	c-2.8,3.6-8.2,6.5-11.5,6.5h-9.5c1.5-7,2.9-14.1,4.4-21c0-0.2,0.1-0.3,0.3-0.4l7.2-0.2c0.2,0,2.1,0.2,3.1,0.4h0
	c5.6,1.2,8.1,4.4,8.1,8.8C112.5,86.1,112.5,87.9,112.2,88.8z"/>
</svg>
